<svg xmlns="http://www.w3.org/2000/svg" width="20" height="20" viewBox="0 0 20 20">
    <g fill="none" fill-rule="evenodd">
        <path stroke="#333" stroke-width="1.5" d="M1.89 2.75l-.667.949a.968.968 0 0 0-.062 1.014l.258.481a1.75 1.75 0 0 1 .03 1.596l-.336.685a1.25 1.25 0 0 0 .01 1.119l.312.61a1.75 1.75 0 0 1 0 1.593l-.312.61a1.25 1.25 0 0 0-.01 1.118l.336.685a1.75 1.75 0 0 1-.03 1.596l-.258.481a.968.968 0 0 0 .062 1.014l.666.949h16.222l.666-.949c.21-.299.235-.691.062-1.014l-.258-.481a1.75 1.75 0 0 1-.03-1.596l.336-.685a1.25 1.25 0 0 0-.01-1.119l-.312-.61a1.75 1.75 0 0 1 0-1.593l.312-.61c.179-.35.183-.764.01-1.118l-.336-.685a1.75 1.75 0 0 1 .03-1.596l.258-.481a.968.968 0 0 0-.062-1.014l-.666-.949H1.889z"/>
        <path fill="#333" fill-rule="nonzero" d="M9.571 8.22C9.571 7.6 9.223 7 8.406 7h-.24C7.367 7 7 7.6 7 8.22v.13c0 .622.368 1.221 1.165 1.221h.241c.817 0 1.165-.599 1.165-1.22v-.13zm-1.596.063c0-.276.066-.426.31-.426.246 0 .312.15.312.426 0 .281-.066.431-.311.431s-.311-.15-.311-.431zM13 11.649c0-.621-.348-1.22-1.165-1.22h-.241c-.797 0-1.165.599-1.165 1.22v.13c0 .622.368 1.221 1.165 1.221h.24c.818 0 1.166-.6 1.166-1.22v-.13zM13 7l-4.8 6H7l4.8-6H13zm-1.286 4.286c.245 0 .311.15.311.425 0 .282-.066.432-.31.432-.246 0-.312-.15-.312-.432 0-.275.066-.425.311-.425z"/>
    </g>
</svg>
